<svg width="175" height="161" viewBox="0 0 175 161" fill="none" xmlns="http://www.w3.org/2000/svg">
<rect width="175" height="161" fill="#F5F5F5"/>
<g clip-path="url(#clip0_0_1)">
<rect width="175" height="161" fill="#D3EAE9"/>
<path d="M57.3125 110C57.3125 113.167 57.6042 115.375 58.1875 116.625C58.7708 117.792 59.8958 118.375 61.5625 118.375C63.4792 118.375 65.5625 117.5 67.8125 115.75V119.375C65.3958 122.042 63.2708 123.875 61.4375 124.875C59.6042 125.875 57.4792 126.375 55.0625 126.375C52.1458 126.375 49.9792 125.583 48.5625 124C47.2292 122.333 46.3958 119.583 46.0625 115.75C41.7292 119.5 37.9375 122.208 34.6875 123.875C31.4375 125.542 28.2708 126.375 25.1875 126.375C20.6875 126.375 17.0208 124.958 14.1875 122.125C11.4375 119.292 10.0625 115.625 10.0625 111.125C10.0625 108.875 10.4792 106.625 11.3125 104.375C12.2292 102.042 13.5208 100.167 15.1875 98.75C16.6875 97.4167 18.0625 96.2917 19.3125 95.375C20.6458 94.375 22.3542 93.375 24.4375 92.375C26.5208 91.2917 29.2292 90.0833 32.5625 88.75C35.8958 87.4167 40.3125 85.625 45.8125 83.375V74.25C45.8125 70.3333 44.8542 67.375 42.9375 65.375C41.1042 63.375 38.4375 62.375 34.9375 62.375C32.0208 62.375 29.5625 63.0833 27.5625 64.5C25.6458 65.8333 24.6875 67.4583 24.6875 69.375C24.6875 70.125 24.7708 71.0833 24.9375 72.25C25.1875 73.4167 25.3125 74.375 25.3125 75.125C25.3125 76.7917 24.6458 78.2083 23.3125 79.375C22.0625 80.5417 20.6042 81.125 18.9375 81.125C17.2708 81.125 15.8125 80.5417 14.5625 79.375C13.3958 78.125 12.8125 76.6667 12.8125 75C12.8125 73.1667 13.3125 71.2917 14.3125 69.375C15.3958 67.4583 16.8542 65.75 18.6875 64.25C20.6042 62.5833 23.1458 61.2917 26.3125 60.375C29.5625 59.4583 33.0625 59 36.8125 59C41.1458 59 44.7708 59.75 47.6875 61.25C50.6875 62.6667 52.9792 64.6667 54.5625 67.25C55.5625 68.9167 56.2708 70.875 56.6875 73.125C57.1042 75.2917 57.3125 78.25 57.3125 82V110ZM45.8125 86.875C41.4792 88.4583 37.7708 90 34.6875 91.5C31.6875 92.9167 29.2292 94.4167 27.3125 96C25.4792 97.5 24.1458 99.125 23.3125 100.875C22.4792 102.625 22.0625 104.542 22.0625 106.625V107.25C22.0625 108.75 22.3125 110.208 22.8125 111.625C23.3125 112.958 23.9792 114.125 24.8125 115.125C25.7292 116.125 26.7708 116.917 27.9375 117.5C29.1042 118.083 30.3125 118.375 31.5625 118.375C33.0625 118.375 34.7292 118.083 36.5625 117.5C38.4792 116.833 40.2708 116.042 41.9375 115.125C43.6042 114.208 44.6458 113.25 45.0625 112.25C45.5625 111.25 45.8125 109.667 45.8125 107.5V86.875ZM90.5625 110.5C90.5625 112.917 90.6875 114.917 90.9375 116.5C91.1875 118 91.6458 119.208 92.3125 120.125C92.9792 120.958 93.9375 121.583 95.1875 122C96.5208 122.417 98.2292 122.75 100.312 123V125H69.4375V123C71.5208 122.667 73.1458 122.292 74.3125 121.875C75.5625 121.458 76.4792 120.833 77.0625 120C77.7292 119.083 78.1458 117.917 78.3125 116.5C78.4792 115 78.5625 113 78.5625 110.5V43.25C78.5625 41.75 78.4792 40.5417 78.3125 39.625C78.1458 38.625 77.7708 37.875 77.1875 37.375C76.6875 36.7917 75.9375 36.4167 74.9375 36.25C74.0208 36.0833 72.8125 36 71.3125 36C70.4792 36 69.8958 36.0417 69.5625 36.125V33.75L73.4375 32.75C75.4375 32.0833 77.1875 31.5417 78.6875 31.125C80.1875 30.625 81.5625 30.2083 82.8125 29.875C84.0625 29.4583 85.2292 29.0833 86.3125 28.75C87.3958 28.3333 88.5625 27.9167 89.8125 27.5L90.5625 28V71.5C93.8958 67.0833 97.1458 63.9583 100.312 62.125C103.562 60.2917 107.271 59.375 111.438 59.375C117.438 59.375 121.854 61.2917 124.688 65.125C127.521 68.9583 128.938 74.625 128.938 82.125V110.5C128.938 112.917 129.021 114.875 129.188 116.375C129.354 117.792 129.729 118.958 130.312 119.875C130.979 120.708 131.896 121.375 133.062 121.875C134.229 122.292 135.771 122.667 137.688 123V125H107.438V123C109.521 122.75 111.188 122.417 112.438 122C113.688 121.583 114.646 120.958 115.312 120.125C116.062 119.208 116.521 118 116.688 116.5C116.938 114.917 117.062 112.917 117.062 110.5V82.375C117.062 72.2917 113.562 67.25 106.562 67.25C103.646 67.25 100.979 67.9167 98.5625 69.25C96.2292 70.5 93.5625 72.7917 90.5625 76.125V110.5ZM157.562 110.875C159.562 110.875 161.354 111.667 162.938 113.25C164.604 114.833 165.438 116.708 165.438 118.875C165.438 120.958 164.604 122.792 162.938 124.375C161.354 125.875 159.479 126.625 157.312 126.625C155.146 126.625 153.271 125.875 151.688 124.375C150.188 122.792 149.438 120.917 149.438 118.75C149.438 116.5 150.229 114.625 151.812 113.125C153.396 111.625 155.312 110.875 157.562 110.875Z" fill="black"/>
</g>
<defs>
<clipPath id="clip0_0_1">
<rect width="175" height="161" fill="white"/>
</clipPath>
</defs>
</svg>
