<svg width="211" height="195" viewBox="0 0 211 195" fill="none" xmlns="http://www.w3.org/2000/svg">
<rect width="211" height="195" fill="#F5F5F5"/>
<g clip-path="url(#clip0_0_1)">
<rect width="211" height="195" fill="#E0D3EA"/>
<ellipse cx="108" cy="99" rx="92" ry="87" fill="#D3EAE9"/>
<path d="M75.3125 129C75.3125 132.167 75.6042 134.375 76.1875 135.625C76.7708 136.792 77.8958 137.375 79.5625 137.375C81.4792 137.375 83.5625 136.5 85.8125 134.75V138.375C83.3958 141.042 81.2708 142.875 79.4375 143.875C77.6042 144.875 75.4792 145.375 73.0625 145.375C70.1458 145.375 67.9792 144.583 66.5625 143C65.2292 141.333 64.3958 138.583 64.0625 134.75C59.7292 138.5 55.9375 141.208 52.6875 142.875C49.4375 144.542 46.2708 145.375 43.1875 145.375C38.6875 145.375 35.0208 143.958 32.1875 141.125C29.4375 138.292 28.0625 134.625 28.0625 130.125C28.0625 127.875 28.4792 125.625 29.3125 123.375C30.2292 121.042 31.5208 119.167 33.1875 117.75C34.6875 116.417 36.0625 115.292 37.3125 114.375C38.6458 113.375 40.3542 112.375 42.4375 111.375C44.5208 110.292 47.2292 109.083 50.5625 107.75C53.8958 106.417 58.3125 104.625 63.8125 102.375V93.25C63.8125 89.3333 62.8542 86.375 60.9375 84.375C59.1042 82.375 56.4375 81.375 52.9375 81.375C50.0208 81.375 47.5625 82.0833 45.5625 83.5C43.6458 84.8333 42.6875 86.4583 42.6875 88.375C42.6875 89.125 42.7708 90.0833 42.9375 91.25C43.1875 92.4167 43.3125 93.375 43.3125 94.125C43.3125 95.7917 42.6458 97.2083 41.3125 98.375C40.0625 99.5417 38.6042 100.125 36.9375 100.125C35.2708 100.125 33.8125 99.5417 32.5625 98.375C31.3958 97.125 30.8125 95.6667 30.8125 94C30.8125 92.1667 31.3125 90.2917 32.3125 88.375C33.3958 86.4583 34.8542 84.75 36.6875 83.25C38.6042 81.5833 41.1458 80.2917 44.3125 79.375C47.5625 78.4583 51.0625 78 54.8125 78C59.1458 78 62.7708 78.75 65.6875 80.25C68.6875 81.6667 70.9792 83.6667 72.5625 86.25C73.5625 87.9167 74.2708 89.875 74.6875 92.125C75.1042 94.2917 75.3125 97.25 75.3125 101V129ZM63.8125 105.875C59.4792 107.458 55.7708 109 52.6875 110.5C49.6875 111.917 47.2292 113.417 45.3125 115C43.4792 116.5 42.1458 118.125 41.3125 119.875C40.4792 121.625 40.0625 123.542 40.0625 125.625V126.25C40.0625 127.75 40.3125 129.208 40.8125 130.625C41.3125 131.958 41.9792 133.125 42.8125 134.125C43.7292 135.125 44.7708 135.917 45.9375 136.5C47.1042 137.083 48.3125 137.375 49.5625 137.375C51.0625 137.375 52.7292 137.083 54.5625 136.5C56.4792 135.833 58.2708 135.042 59.9375 134.125C61.6042 133.208 62.6458 132.25 63.0625 131.25C63.5625 130.25 63.8125 128.667 63.8125 126.5V105.875ZM108.562 129.5C108.562 131.917 108.688 133.917 108.938 135.5C109.188 137 109.646 138.208 110.312 139.125C110.979 139.958 111.938 140.583 113.188 141C114.521 141.417 116.229 141.75 118.312 142V144H87.4375V142C89.5208 141.667 91.1458 141.292 92.3125 140.875C93.5625 140.458 94.4792 139.833 95.0625 139C95.7292 138.083 96.1458 136.917 96.3125 135.5C96.4792 134 96.5625 132 96.5625 129.5V62.25C96.5625 60.75 96.4792 59.5417 96.3125 58.625C96.1458 57.625 95.7708 56.875 95.1875 56.375C94.6875 55.7917 93.9375 55.4167 92.9375 55.25C92.0208 55.0833 90.8125 55 89.3125 55C88.4792 55 87.8958 55.0417 87.5625 55.125V52.75L91.4375 51.75C93.4375 51.0833 95.1875 50.5417 96.6875 50.125C98.1875 49.625 99.5625 49.2083 100.812 48.875C102.062 48.4583 103.229 48.0833 104.312 47.75C105.396 47.3333 106.562 46.9167 107.812 46.5L108.562 47V90.5C111.896 86.0833 115.146 82.9583 118.312 81.125C121.562 79.2917 125.271 78.375 129.438 78.375C135.438 78.375 139.854 80.2917 142.688 84.125C145.521 87.9583 146.938 93.625 146.938 101.125V129.5C146.938 131.917 147.021 133.875 147.188 135.375C147.354 136.792 147.729 137.958 148.312 138.875C148.979 139.708 149.896 140.375 151.062 140.875C152.229 141.292 153.771 141.667 155.688 142V144H125.438V142C127.521 141.75 129.188 141.417 130.438 141C131.688 140.583 132.646 139.958 133.312 139.125C134.062 138.208 134.521 137 134.688 135.5C134.938 133.917 135.062 131.917 135.062 129.5V101.375C135.062 91.2917 131.562 86.25 124.562 86.25C121.646 86.25 118.979 86.9167 116.562 88.25C114.229 89.5 111.562 91.7917 108.562 95.125V129.5ZM175.562 129.875C177.562 129.875 179.354 130.667 180.938 132.25C182.604 133.833 183.438 135.708 183.438 137.875C183.438 139.958 182.604 141.792 180.938 143.375C179.354 144.875 177.479 145.625 175.312 145.625C173.146 145.625 171.271 144.875 169.688 143.375C168.188 141.792 167.438 139.917 167.438 137.75C167.438 135.5 168.229 133.625 169.812 132.125C171.396 130.625 173.312 129.875 175.562 129.875Z" fill="black"/>
</g>
<defs>
<clipPath id="clip0_0_1">
<rect width="211" height="195" fill="white"/>
</clipPath>
</defs>
</svg>
